<svg width="111" height="78" viewBox="0 0 111 78" fill="none" xmlns="http://www.w3.org/2000/svg">
    <mask id="path-1-outside-1_95_3" maskUnits="userSpaceOnUse" x="-1" y="-1" width="113" height="80" fill="black">
        <rect fill="white" x="-1" y="-1" width="113" height="80"/>
        <path d="M18.3594 72.2188C14.4531 72.2188 11.3594 71.2969 9.07812 69.4531C6.79688 67.6406 5.65625 65.6094 5.65625 63.3594C5.65625 61.0469 6.46875 59.6406 8.09375 59.1406C8.53125 58.5156 8.53125 57.7812 8.09375 56.9375C6.40625 56.9375 5.01562 57.5312 3.92188 58.7188C2.85938 59.9062 2.32812 61.5781 2.32812 63.7344C2.32812 66.4219 3.84375 69.0156 6.875 71.5156C9.90625 74.0156 13.8594 75.2656 18.7344 75.2656C25.1406 75.2656 30.75 72.9062 35.5625 68.1875C40.4062 63.5 42.8281 57.7031 42.8281 50.7969C42.8281 46.6406 42.1562 43.1406 40.8125 40.2969C39.4688 37.4531 37.5469 35.2656 35.0469 33.7344C32.5469 32.1719 29.7969 31.0781 26.7969 30.4531C23.7969 29.7969 20.3125 29.4688 16.3438 29.4688L18.3594 17.6562H41.75L45.5 3.26562C44.9375 2.82812 44.1719 2.60938 43.2031 2.60938C42.2656 4.42188 41.2188 5.8125 40.0625 6.78125C38.9062 7.75 36.6875 8.3125 33.4062 8.46875H15.7344C14.6719 19.6562 12.9531 28.9375 10.5781 36.3125C11.2656 37.8438 12.25 38.7344 13.5312 38.9844C16.6875 38.9844 19.375 39.1406 21.5938 39.4531C23.8438 39.7656 26.0625 40.375 28.25 41.2812C30.4688 42.1875 32.1562 43.6094 33.3125 45.5469C34.4688 47.4531 35.0469 49.8438 35.0469 52.7188C35.0469 59.5 33.3906 64.4375 30.0781 67.5312C26.7969 70.6562 22.8906 72.2188 18.3594 72.2188ZM41.9375 0.6875C44.3125 0.6875 46.2031 1.29688 47.6094 2.51562L43.2031 19.5781H23.9844L22.6719 27.5469C31.2344 27.6719 37.8281 29.4531 42.4531 32.8906C47.1094 36.3281 49.4375 42.2969 49.4375 50.7969C49.4375 58.0781 46.1719 64.2812 39.6406 69.4062C33.1094 74.5312 26.1094 77.0938 18.6406 77.0938C15.3594 77.0938 12.4688 76.6094 9.96875 75.6406C7.5 74.7031 5.59375 73.4844 4.25 71.9844C2.90625 70.5156 1.90625 69.0469 1.25 67.5781C0.625 66.1094 0.3125 64.7344 0.3125 63.4531C0.3125 61.0156 1.07812 59 2.60938 57.4062C4.14062 55.8125 6.03125 55.0156 8.28125 55.0156C12.625 55.0156 14.7969 57.4219 14.7969 62.2344C14.7969 65.1719 13.3594 67.2812 10.4844 68.5625C11.2969 69.1875 12.7188 69.6562 14.75 69.9688C16.8125 70.3125 18.4531 70.3906 19.6719 70.2031C23.4531 69.8594 26.6406 68.2969 29.2344 65.5156C31.8281 62.7344 33.125 58.4688 33.125 52.7188C33.125 50.2188 32.5781 48.1562 31.4844 46.5312C30.3906 44.9062 28.8125 43.7031 26.75 42.9219C24.7188 42.1406 22.6562 41.6094 20.5625 41.3281C18.5 41.0469 16.0312 40.9062 13.1562 40.9062C12.0625 40.6562 11.1875 40.2344 10.5312 39.6406C9.90625 39.0156 9.25 37.9688 8.5625 36.5C11 28.875 12.8125 18.8906 14 6.54688H34.2031C35.8906 6.48438 37.2344 6.10938 38.2344 5.42188C39.2344 4.70312 39.9531 4.04688 40.3906 3.45312C40.8594 2.82812 41.375 1.90625 41.9375 0.6875ZM65.1406 14.0469C60.5781 18.6719 58.2969 24.2344 58.2969 30.7344C58.2969 33.9844 58.9062 37.0469 60.125 39.9219C61.375 42.7656 63.0625 45.2656 65.1875 47.4219C67.3125 49.5469 69.7969 51.2344 72.6406 52.4844C75.5156 53.7344 78.5781 54.3594 81.8281 54.3594C85.0781 54.3594 88.1406 53.7344 91.0156 52.4844C93.8906 51.2344 96.4062 49.5469 98.5625 47.4219C100.719 45.2656 102.422 42.7656 103.672 39.9219C104.922 37.0469 105.547 33.9844 105.547 30.7344C105.547 27.5156 104.906 24.4688 103.625 21.5938C102.375 18.7188 100.672 16.2031 98.5156 14.0469C96.3594 11.8906 93.8438 10.1875 90.9688 8.9375C88.0938 7.65625 85.0469 7.01562 81.8281 7.01562C75.2969 7.01562 69.7344 9.35938 65.1406 14.0469ZM81.8281 5.09375C86.0781 5.09375 89.9688 5.76562 93.5 7.10938C97.0625 8.42188 100.125 10.2344 102.688 12.5469C105.25 14.8281 107.234 17.5312 108.641 20.6562C110.078 23.7812 110.797 27.1406 110.797 30.7344C110.797 34.3281 110.078 37.6875 108.641 40.8125C107.234 43.9062 105.25 46.6094 102.688 48.9219C100.156 51.2031 97.1094 53 93.5469 54.3125C89.9844 55.625 86.0781 56.2812 81.8281 56.2812C74.7969 56.2812 68.7969 53.7812 63.8281 48.7812C58.8594 43.7812 56.375 37.7656 56.375 30.7344C56.375 23.7031 58.8594 17.6719 63.8281 12.6406C68.7969 7.60938 74.7969 5.09375 81.8281 5.09375ZM64.625 30.8281C64.625 25.9531 66.2812 21.8281 69.5938 18.4531C72.9375 15.0469 76.9844 13.3438 81.7344 13.3438C86.6094 13.3438 90.7344 15.0469 94.1094 18.4531C97.5156 21.8281 99.2188 25.9531 99.2188 30.8281C99.2188 35.5469 97.5156 39.5938 94.1094 42.9688C90.7344 46.3438 86.6094 48.0312 81.7344 48.0312C77.0469 48.0312 73.0156 46.3438 69.6406 42.9688C66.2969 39.5938 64.625 35.5469 64.625 30.8281ZM69.9219 30.8281C69.9219 34.7344 71.2188 38.125 73.8125 41C76.4062 43.875 79.5938 45.5312 83.375 45.9688C87.3438 45.5938 90.6562 43.9531 93.3125 41.0469C95.9688 38.1406 97.2969 34.7344 97.2969 30.8281C97.2969 26.7969 95.9688 23.3281 93.3125 20.4219C90.6562 17.5156 87.3438 15.8281 83.375 15.3594C79.5312 15.8281 76.3281 17.5156 73.7656 20.4219C71.2031 23.3281 69.9219 26.7969 69.9219 30.8281Z"/>
    </mask>
    <path d="M18.3594 72.2188C14.4531 72.2188 11.3594 71.2969 9.07812 69.4531C6.79688 67.6406 5.65625 65.6094 5.65625 63.3594C5.65625 61.0469 6.46875 59.6406 8.09375 59.1406C8.53125 58.5156 8.53125 57.7812 8.09375 56.9375C6.40625 56.9375 5.01562 57.5312 3.92188 58.7188C2.85938 59.9062 2.32812 61.5781 2.32812 63.7344C2.32812 66.4219 3.84375 69.0156 6.875 71.5156C9.90625 74.0156 13.8594 75.2656 18.7344 75.2656C25.1406 75.2656 30.75 72.9062 35.5625 68.1875C40.4062 63.5 42.8281 57.7031 42.8281 50.7969C42.8281 46.6406 42.1562 43.1406 40.8125 40.2969C39.4688 37.4531 37.5469 35.2656 35.0469 33.7344C32.5469 32.1719 29.7969 31.0781 26.7969 30.4531C23.7969 29.7969 20.3125 29.4688 16.3438 29.4688L18.3594 17.6562H41.75L45.5 3.26562C44.9375 2.82812 44.1719 2.60938 43.2031 2.60938C42.2656 4.42188 41.2188 5.8125 40.0625 6.78125C38.9062 7.75 36.6875 8.3125 33.4062 8.46875H15.7344C14.6719 19.6562 12.9531 28.9375 10.5781 36.3125C11.2656 37.8438 12.25 38.7344 13.5312 38.9844C16.6875 38.9844 19.375 39.1406 21.5938 39.4531C23.8438 39.7656 26.0625 40.375 28.25 41.2812C30.4688 42.1875 32.1562 43.6094 33.3125 45.5469C34.4688 47.4531 35.0469 49.8438 35.0469 52.7188C35.0469 59.5 33.3906 64.4375 30.0781 67.5312C26.7969 70.6562 22.8906 72.2188 18.3594 72.2188ZM41.9375 0.6875C44.3125 0.6875 46.2031 1.29688 47.6094 2.51562L43.2031 19.5781H23.9844L22.6719 27.5469C31.2344 27.6719 37.8281 29.4531 42.4531 32.8906C47.1094 36.3281 49.4375 42.2969 49.4375 50.7969C49.4375 58.0781 46.1719 64.2812 39.6406 69.4062C33.1094 74.5312 26.1094 77.0938 18.6406 77.0938C15.3594 77.0938 12.4688 76.6094 9.96875 75.6406C7.5 74.7031 5.59375 73.4844 4.25 71.9844C2.90625 70.5156 1.90625 69.0469 1.25 67.5781C0.625 66.1094 0.3125 64.7344 0.3125 63.4531C0.3125 61.0156 1.07812 59 2.60938 57.4062C4.14062 55.8125 6.03125 55.0156 8.28125 55.0156C12.625 55.0156 14.7969 57.4219 14.7969 62.2344C14.7969 65.1719 13.3594 67.2812 10.4844 68.5625C11.2969 69.1875 12.7188 69.6562 14.75 69.9688C16.8125 70.3125 18.4531 70.3906 19.6719 70.2031C23.4531 69.8594 26.6406 68.2969 29.2344 65.5156C31.8281 62.7344 33.125 58.4688 33.125 52.7188C33.125 50.2188 32.5781 48.1562 31.4844 46.5312C30.3906 44.9062 28.8125 43.7031 26.75 42.9219C24.7188 42.1406 22.6562 41.6094 20.5625 41.3281C18.5 41.0469 16.0312 40.9062 13.1562 40.9062C12.0625 40.6562 11.1875 40.2344 10.5312 39.6406C9.90625 39.0156 9.25 37.9688 8.5625 36.5C11 28.875 12.8125 18.8906 14 6.54688H34.2031C35.8906 6.48438 37.2344 6.10938 38.2344 5.42188C39.2344 4.70312 39.9531 4.04688 40.3906 3.45312C40.8594 2.82812 41.375 1.90625 41.9375 0.6875ZM65.1406 14.0469C60.5781 18.6719 58.2969 24.2344 58.2969 30.7344C58.2969 33.9844 58.9062 37.0469 60.125 39.9219C61.375 42.7656 63.0625 45.2656 65.1875 47.4219C67.3125 49.5469 69.7969 51.2344 72.6406 52.4844C75.5156 53.7344 78.5781 54.3594 81.8281 54.3594C85.0781 54.3594 88.1406 53.7344 91.0156 52.4844C93.8906 51.2344 96.4062 49.5469 98.5625 47.4219C100.719 45.2656 102.422 42.7656 103.672 39.9219C104.922 37.0469 105.547 33.9844 105.547 30.7344C105.547 27.5156 104.906 24.4688 103.625 21.5938C102.375 18.7188 100.672 16.2031 98.5156 14.0469C96.3594 11.8906 93.8438 10.1875 90.9688 8.9375C88.0938 7.65625 85.0469 7.01562 81.8281 7.01562C75.2969 7.01562 69.7344 9.35938 65.1406 14.0469ZM81.8281 5.09375C86.0781 5.09375 89.9688 5.76562 93.5 7.10938C97.0625 8.42188 100.125 10.2344 102.688 12.5469C105.25 14.8281 107.234 17.5312 108.641 20.6562C110.078 23.7812 110.797 27.1406 110.797 30.7344C110.797 34.3281 110.078 37.6875 108.641 40.8125C107.234 43.9062 105.25 46.6094 102.688 48.9219C100.156 51.2031 97.1094 53 93.5469 54.3125C89.9844 55.625 86.0781 56.2812 81.8281 56.2812C74.7969 56.2812 68.7969 53.7812 63.8281 48.7812C58.8594 43.7812 56.375 37.7656 56.375 30.7344C56.375 23.7031 58.8594 17.6719 63.8281 12.6406C68.7969 7.60938 74.7969 5.09375 81.8281 5.09375ZM64.625 30.8281C64.625 25.9531 66.2812 21.8281 69.5938 18.4531C72.9375 15.0469 76.9844 13.3438 81.7344 13.3438C86.6094 13.3438 90.7344 15.0469 94.1094 18.4531C97.5156 21.8281 99.2188 25.9531 99.2188 30.8281C99.2188 35.5469 97.5156 39.5938 94.1094 42.9688C90.7344 46.3438 86.6094 48.0312 81.7344 48.0312C77.0469 48.0312 73.0156 46.3438 69.6406 42.9688C66.2969 39.5938 64.625 35.5469 64.625 30.8281ZM69.9219 30.8281C69.9219 34.7344 71.2188 38.125 73.8125 41C76.4062 43.875 79.5938 45.5312 83.375 45.9688C87.3438 45.5938 90.6562 43.9531 93.3125 41.0469C95.9688 38.1406 97.2969 34.7344 97.2969 30.8281C97.2969 26.7969 95.9688 23.3281 93.3125 20.4219C90.6562 17.5156 87.3438 15.8281 83.375 15.3594C79.5312 15.8281 76.3281 17.5156 73.7656 20.4219C71.2031 23.3281 69.9219 26.7969 69.9219 30.8281Z" fill="#9C3737"/>
    <path d="M9.07812 69.4531L9.70673 68.6754L9.7002 68.6702L9.07812 69.4531ZM8.09375 59.1406L8.38784 60.0964L8.71605 59.9954L8.91298 59.7141L8.09375 59.1406ZM8.09375 56.9375L8.9815 56.4772L8.70167 55.9375H8.09375V56.9375ZM3.92188 58.7188L3.18633 58.0413L3.18144 58.0466L3.17663 58.052L3.92188 58.7188ZM6.875 71.5156L6.23874 72.2871L6.875 71.5156ZM35.5625 68.1875L34.8671 67.4689L34.8624 67.4735L35.5625 68.1875ZM35.0469 33.7344L34.5169 34.5824L34.5246 34.5871L35.0469 33.7344ZM26.7969 30.4531L26.5832 31.4301L26.5929 31.4321L26.7969 30.4531ZM16.3438 29.4688L15.358 29.3005L15.1587 30.4688H16.3438V29.4688ZM18.3594 17.6562V16.6562H17.5156L17.3736 17.488L18.3594 17.6562ZM41.75 17.6562V18.6562H42.5228L42.7177 17.9084L41.75 17.6562ZM45.5 3.26562L46.4677 3.51779L46.6337 2.88056L46.1139 2.47627L45.5 3.26562ZM43.2031 2.60938V1.60938H42.5945L42.3149 2.14995L43.2031 2.60938ZM33.4062 8.46875V9.46875H33.43L33.4538 9.46762L33.4062 8.46875ZM15.7344 8.46875V7.46875H14.8248L14.7389 8.3742L15.7344 8.46875ZM10.5781 36.3125L9.62626 36.006L9.50851 36.3716L9.66586 36.7221L10.5781 36.3125ZM13.5312 38.9844L13.3397 39.9659L13.4346 39.9844H13.5312V38.9844ZM21.5938 39.4531L21.4543 40.4434L21.4562 40.4436L21.5938 39.4531ZM28.25 41.2812L27.8673 42.2051L27.8719 42.207L28.25 41.2812ZM33.3125 45.5469L32.4538 46.0593L32.4575 46.0655L33.3125 45.5469ZM30.0781 67.5312L29.3955 66.8004L29.3885 66.8071L30.0781 67.5312ZM41.9375 0.6875V-0.3125H41.2977L41.0295 0.268442L41.9375 0.6875ZM47.6094 2.51562L48.5776 2.76566L48.7325 2.16574L48.2643 1.75994L47.6094 2.51562ZM43.2031 19.5781V20.5781H43.9777L44.1714 19.8282L43.2031 19.5781ZM23.9844 19.5781V18.5781H23.1356L22.9977 19.4156L23.9844 19.5781ZM22.6719 27.5469L21.6852 27.3844L21.4965 28.5298L22.6573 28.5468L22.6719 27.5469ZM42.4531 32.8906L41.8566 33.6932L41.8592 33.6951L42.4531 32.8906ZM9.96875 75.6406L10.3301 74.7082L10.3238 74.7058L9.96875 75.6406ZM4.25 71.9844L4.99488 71.3171L4.98781 71.3094L4.25 71.9844ZM1.25 67.5781L0.329845 67.9697L0.333345 67.9779L0.336991 67.9861L1.25 67.5781ZM10.4844 68.5625L10.0773 67.6491L8.54473 68.3321L9.87466 69.3551L10.4844 68.5625ZM14.75 69.9688L14.9144 68.9823L14.9021 68.9804L14.75 69.9688ZM19.6719 70.2031L19.5813 69.2072L19.5505 69.21L19.5198 69.2148L19.6719 70.2031ZM26.75 42.9219L26.391 43.8552L26.3958 43.857L26.75 42.9219ZM20.5625 41.3281L20.4274 42.319L20.4294 42.3192L20.5625 41.3281ZM13.1562 40.9062L12.9334 41.8811L13.0434 41.9062H13.1562V40.9062ZM10.5312 39.6406L9.82414 40.3477L9.84181 40.3654L9.86034 40.3822L10.5312 39.6406ZM8.5625 36.5L7.60999 36.1955L7.49062 36.5689L7.65681 36.9239L8.5625 36.5ZM14 6.54688V5.54688H13.0916L13.0046 6.45111L14 6.54688ZM34.2031 6.54688V7.54688H34.2216L34.2401 7.54619L34.2031 6.54688ZM38.2344 5.42188L38.8009 6.24592L38.8095 6.23999L38.818 6.23389L38.2344 5.42188ZM40.3906 3.45312L39.5906 2.8531L39.5856 2.85993L40.3906 3.45312ZM18.3594 71.2188C14.6058 71.2188 11.7587 70.3338 9.70671 68.6754L8.44954 70.2309C10.9601 72.2599 14.3004 73.2188 18.3594 73.2188V71.2188ZM9.7002 68.6702C7.58134 66.9867 6.65625 65.2186 6.65625 63.3594H4.65625C4.65625 66.0001 6.01241 68.2946 8.45605 70.2361L9.7002 68.6702ZM6.65625 63.3594C6.65625 62.3085 6.84263 61.5705 7.13149 61.0706C7.4051 60.597 7.80414 60.276 8.38784 60.0964L7.79966 58.1848C6.75836 58.5052 5.93865 59.1373 5.39976 60.07C4.87612 60.9763 4.65625 62.0978 4.65625 63.3594H6.65625ZM8.91298 59.7141C9.61985 58.7043 9.54032 57.5549 8.9815 56.4772L7.206 57.3978C7.52218 58.0076 7.44265 58.327 7.27452 58.5672L8.91298 59.7141ZM8.09375 55.9375C6.14105 55.9375 4.47888 56.6379 3.18633 58.0413L4.65742 59.3962C5.55237 58.4246 6.67145 57.9375 8.09375 57.9375V55.9375ZM3.17663 58.052C1.89967 59.4791 1.32812 61.4199 1.32812 63.7344H3.32812C3.32812 61.7363 3.81908 60.3334 4.66712 59.3855L3.17663 58.052ZM1.32812 63.7344C1.32812 66.8382 3.08677 69.6875 6.23874 72.2871L7.51126 70.7442C4.60073 68.3437 3.32812 66.0056 3.32812 63.7344H1.32812ZM6.23874 72.2871C9.48899 74.9677 13.6847 76.2656 18.7344 76.2656V74.2656C14.034 74.2656 10.3235 73.0635 7.51126 70.7442L6.23874 72.2871ZM18.7344 76.2656C25.4172 76.2656 31.274 73.793 36.2626 68.9015L34.8624 67.4735C30.226 72.0195 24.8641 74.2656 18.7344 74.2656V76.2656ZM36.2579 68.9061C41.3017 64.0251 43.8281 57.9665 43.8281 50.7969H41.8281C41.8281 57.4397 39.5108 62.9749 34.8671 67.4689L36.2579 68.9061ZM43.8281 50.7969C43.8281 46.5383 43.1404 42.8827 41.7166 39.8696L39.9084 40.7241C41.1721 43.3986 41.8281 46.743 41.8281 50.7969H43.8281ZM41.7166 39.8696C40.2961 36.8633 38.2474 34.522 35.5692 32.8816L34.5246 34.5871C36.8464 36.0092 38.6414 38.0429 39.9084 40.7241L41.7166 39.8696ZM35.5769 32.8864C32.9728 31.2589 30.1118 30.1223 27.0008 29.4741L26.5929 31.4321C29.482 32.034 32.1209 33.0849 34.5169 34.5824L35.5769 32.8864ZM27.0106 29.4762C23.9235 28.8009 20.3647 28.4688 16.3438 28.4688V30.4688C20.2603 30.4688 23.6703 30.7928 26.5832 31.43L27.0106 29.4762ZM17.3295 29.637L19.3451 17.8245L17.3736 17.488L15.358 29.3005L17.3295 29.637ZM18.3594 18.6562H41.75V16.6562H18.3594V18.6562ZM42.7177 17.9084L46.4677 3.51779L44.5323 3.01346L40.7823 17.4041L42.7177 17.9084ZM46.1139 2.47627C45.3222 1.86051 44.3151 1.60938 43.2031 1.60938V3.60938C44.0287 3.60938 44.5528 3.79574 44.8861 4.05498L46.1139 2.47627ZM42.3149 2.14995C41.4181 3.88385 40.446 5.15534 39.4203 6.01473L40.7047 7.54777C41.9915 6.46966 43.1132 4.9599 44.0913 3.0688L42.3149 2.14995ZM39.4203 6.01473C39.0015 6.3656 38.3177 6.69867 37.2855 6.96035C36.2623 7.21975 34.9587 7.39369 33.3587 7.46988L33.4538 9.46762C35.1351 9.38756 36.5814 9.20212 37.777 8.89902C38.9635 8.59821 39.9673 8.16565 40.7047 7.54777L39.4203 6.01473ZM33.4062 7.46875H15.7344V9.46875H33.4062V7.46875ZM14.7389 8.3742C13.6804 19.5188 11.9716 28.723 9.62626 36.006L11.53 36.619C13.9346 29.152 15.6633 19.7937 16.7299 8.5633L14.7389 8.3742ZM9.66586 36.7221C10.4442 38.4556 11.6503 39.6362 13.3397 39.9659L13.7228 38.0029C12.8497 37.8325 12.0871 37.2319 11.4904 35.9029L9.66586 36.7221ZM13.5312 39.9844C16.6581 39.9844 19.2961 40.1394 21.4543 40.4434L21.7332 38.4629C19.4539 38.1419 16.7169 37.9844 13.5312 37.9844V39.9844ZM21.4562 40.4436C23.6185 40.7439 25.755 41.33 27.8673 42.2051L28.6327 40.3574C26.37 39.42 24.069 38.7873 21.7313 38.4626L21.4562 40.4436ZM27.8719 42.207C29.9032 43.0367 31.4158 44.3201 32.4538 46.0593L34.1712 45.0344C32.8967 42.8987 31.0343 41.3383 28.6281 40.3555L27.8719 42.207ZM32.4575 46.0655C33.4951 47.7762 34.0469 49.9746 34.0469 52.7188H36.0469C36.0469 49.7129 35.4424 47.1301 34.1675 45.0283L32.4575 46.0655ZM34.0469 52.7188C34.0469 59.3604 32.4233 63.9727 29.3956 66.8004L30.7607 68.2621C34.358 64.9023 36.0469 59.6396 36.0469 52.7188H34.0469ZM29.3885 66.8071C26.2932 69.755 22.6338 71.2188 18.3594 71.2188V73.2188C23.1474 73.2188 27.3006 71.5575 30.7678 68.2554L29.3885 66.8071ZM41.9375 1.6875C44.1402 1.6875 45.7757 2.24973 46.9544 3.27131L48.2643 1.75994C46.6306 0.344017 44.4848 -0.3125 41.9375 -0.3125V1.6875ZM46.6411 2.26559L42.2349 19.3281L44.1714 19.8282L48.5776 2.76566L46.6411 2.26559ZM43.2031 18.5781H23.9844V20.5781H43.2031V18.5781ZM22.9977 19.4156L21.6852 27.3844L23.6586 27.7094L24.9711 19.7406L22.9977 19.4156ZM22.6573 28.5468C31.1068 28.6701 37.464 30.4284 41.8566 33.6932L43.0496 32.088C38.1923 28.4778 31.362 26.6736 22.6865 26.547L22.6573 28.5468ZM41.8592 33.6951C46.1563 36.8675 48.4375 42.4583 48.4375 50.7969H50.4375C50.4375 42.1354 48.0624 35.7887 43.0471 32.0861L41.8592 33.6951ZM48.4375 50.7969C48.4375 57.7254 45.3513 63.654 39.0233 68.6195L40.2579 70.193C46.9924 64.9085 50.4375 58.4309 50.4375 50.7969H48.4375ZM39.0233 68.6195C32.6474 73.6227 25.8605 76.0938 18.6406 76.0938V78.0938C26.3583 78.0938 33.5714 75.4398 40.2579 70.193L39.0233 68.6195ZM18.6406 76.0938C15.4561 76.0938 12.6922 75.6235 10.3301 74.7082L9.60743 76.5731C12.2453 77.5952 15.2626 78.0938 18.6406 78.0938V76.0938ZM10.3238 74.7058C7.95963 73.808 6.20393 72.6668 4.99484 71.3171L3.50516 72.6516C4.98357 74.3019 7.04037 75.5983 9.61374 76.5755L10.3238 74.7058ZM4.98781 71.3094C3.69991 69.9017 2.76659 68.5211 2.16301 67.1702L0.336991 67.9861C1.04591 69.5727 2.11259 71.1296 3.51219 72.6594L4.98781 71.3094ZM2.17015 67.1866C1.5853 65.8122 1.3125 64.5711 1.3125 63.4531H-0.6875C-0.6875 64.8976 -0.335303 66.4066 0.329845 67.9697L2.17015 67.1866ZM1.3125 63.4531C1.3125 61.2449 1.99731 59.4867 3.33048 58.0991L1.88827 56.7134C0.158942 58.5133 -0.6875 60.7863 -0.6875 63.4531H1.3125ZM3.33048 58.0991C4.66937 56.7055 6.29786 56.0156 8.28125 56.0156V54.0156C5.76464 54.0156 3.61188 54.9195 1.88827 56.7134L3.33048 58.0991ZM8.28125 56.0156C10.271 56.0156 11.5878 56.562 12.4256 57.4903C13.2811 58.4381 13.7969 59.9584 13.7969 62.2344H15.7969C15.7969 59.6979 15.2267 57.6088 13.9103 56.1503C12.5763 54.6723 10.6352 54.0156 8.28125 54.0156V56.0156ZM13.7969 62.2344C13.7969 63.5334 13.4816 64.5918 12.8924 65.4564C12.3001 66.3255 11.3847 67.0665 10.0773 67.6491L10.8914 69.4759C12.459 68.7773 13.6999 67.8229 14.5451 66.5827C15.3934 65.3379 15.7969 63.8728 15.7969 62.2344H13.7969ZM9.87466 69.3551C10.8986 70.1428 12.536 70.6399 14.5979 70.9571L14.9021 68.9804C12.9015 68.6726 11.6951 68.2322 11.0941 67.7699L9.87466 69.3551ZM14.5856 70.9551C16.6907 71.306 18.4522 71.4025 19.8239 71.1915L19.5198 69.2148C18.454 69.3787 16.9343 69.319 14.9144 68.9824L14.5856 70.9551ZM19.7624 71.199C23.789 70.833 27.2045 69.1584 29.9657 66.1977L28.503 64.8336C26.0767 67.4353 23.1172 68.8858 19.5813 69.2072L19.7624 71.199ZM29.9657 66.1977C32.8024 63.1559 34.125 58.5955 34.125 52.7188H32.125C32.125 58.342 30.8539 62.3128 28.503 64.8336L29.9657 66.1977ZM34.125 52.7188C34.125 50.0746 33.5459 47.8031 32.314 45.9729L30.6548 47.0896C31.6104 48.5094 32.125 50.3629 32.125 52.7188H34.125ZM32.314 45.9729C31.0903 44.1549 29.335 42.8317 27.1042 41.9867L26.3958 43.857C28.29 44.5746 29.691 45.6576 30.6548 47.0896L32.314 45.9729ZM27.109 41.9885C25.0072 41.1801 22.869 40.629 20.6956 40.337L20.4294 42.3192C22.4435 42.5898 24.4303 43.1011 26.391 43.8552L27.109 41.9885ZM20.6976 40.3373C18.5771 40.0481 16.0608 39.9062 13.1562 39.9062V41.9062C16.0017 41.9062 18.4229 42.0456 20.4274 42.319L20.6976 40.3373ZM13.3791 39.9314C12.4084 39.7095 11.7019 39.3512 11.2022 38.8991L9.86034 40.3822C10.6731 41.1176 11.7166 41.603 12.9334 41.8811L13.3791 39.9314ZM11.2384 38.9335C10.7376 38.4328 10.1404 37.5122 9.46819 36.0761L7.65681 36.9239C8.35956 38.4253 9.07485 39.5984 9.82414 40.3477L11.2384 38.9335ZM9.51501 36.8045C11.9826 29.0853 13.8044 19.0232 14.9954 6.64264L13.0046 6.45111C11.8206 18.7581 10.0174 28.6647 7.60999 36.1955L9.51501 36.8045ZM14 7.54688H34.2031V5.54688H14V7.54688ZM34.2401 7.54619C36.0459 7.47931 37.5947 7.07518 38.8009 6.24592L37.6678 4.59783C36.874 5.14357 35.7353 5.48944 34.1661 5.54756L34.2401 7.54619ZM38.818 6.23389C39.8541 5.48923 40.6686 4.76166 41.1957 4.04632L39.5856 2.85993C39.2377 3.33209 38.6147 3.91702 37.6507 4.60986L38.818 6.23389ZM41.1906 4.05313C41.7212 3.34573 42.2712 2.3507 42.8455 1.10656L41.0295 0.268442C40.4788 1.4618 39.9976 2.31052 39.5906 2.85312L41.1906 4.05313ZM65.1406 14.0469L65.8525 14.7492L65.8548 14.7468L65.1406 14.0469ZM60.125 39.9219L59.2042 40.3122L59.2095 40.3243L60.125 39.9219ZM65.1875 47.4219L64.4752 48.1238L64.4804 48.129L65.1875 47.4219ZM72.6406 52.4844L72.2382 53.3998L72.2419 53.4014L72.6406 52.4844ZM98.5625 47.4219L99.2644 48.1341L99.2696 48.129L98.5625 47.4219ZM103.672 39.9219L104.587 40.3243L104.589 40.3206L103.672 39.9219ZM103.625 21.5938L102.708 21.9925L102.712 22.0008L103.625 21.5938ZM90.9688 8.9375L90.5617 9.85094L90.57 9.85457L90.9688 8.9375ZM93.5 7.10938L93.1443 8.04405L93.1543 8.04772L93.5 7.10938ZM102.688 12.5469L102.018 13.2893L102.023 13.2938L102.688 12.5469ZM108.641 20.6562L107.729 21.0666L107.732 21.0742L108.641 20.6562ZM108.641 40.8125L107.732 40.3946L107.73 40.3987L108.641 40.8125ZM102.688 48.9219L103.357 49.6647L103.357 49.6643L102.688 48.9219ZM69.5938 18.4531L68.8801 17.7526L68.8801 17.7527L69.5938 18.4531ZM94.1094 18.4531L93.399 19.157L93.4055 19.1635L94.1094 18.4531ZM94.1094 42.9688L93.4055 42.2584L93.4023 42.2616L94.1094 42.9688ZM69.6406 42.9688L68.9302 43.6726L68.9335 43.6759L69.6406 42.9688ZM83.375 45.9688L83.2601 46.9621L83.3645 46.9742L83.4691 46.9643L83.375 45.9688ZM83.375 15.3594L83.4923 14.3663L83.3731 14.3522L83.2539 14.3667L83.375 15.3594ZM64.4287 13.3446C59.6815 18.1568 57.2969 23.9717 57.2969 30.7344H59.2969C59.2969 24.4971 61.4747 19.1869 65.8525 14.7492L64.4287 13.3446ZM57.2969 30.7344C57.2969 34.1129 57.9311 37.3087 59.2043 40.3122L61.0457 39.5316C59.8814 36.7851 59.2969 33.8559 59.2969 30.7344H57.2969ZM59.2095 40.3243C60.5072 43.2764 62.2626 45.8786 64.4753 48.1238L65.8997 46.7199C63.8624 44.6526 62.2428 42.2548 61.0405 39.5195L59.2095 40.3243ZM64.4804 48.129C66.6961 50.3447 69.2847 52.1016 72.2382 53.3998L73.043 51.5689C70.309 50.3671 67.9289 48.7491 65.8946 46.7148L64.4804 48.129ZM72.2419 53.4014C75.2473 54.7082 78.4461 55.3594 81.8281 55.3594V53.3594C78.7102 53.3594 75.7839 52.7606 73.0394 51.5673L72.2419 53.4014ZM81.8281 55.3594C85.2102 55.3594 88.4089 54.7082 91.4144 53.4014L90.6169 51.5673C87.8723 52.7606 84.9461 53.3594 81.8281 53.3594V55.3594ZM91.4144 53.4014C94.3981 52.1042 97.0175 50.3485 99.2644 48.1341L97.8606 46.7096C95.795 48.7452 93.3832 50.3646 90.6169 51.5673L91.4144 53.4014ZM99.2696 48.129C101.515 45.8833 103.288 43.2795 104.587 40.3243L102.756 39.5195C101.555 42.2518 99.9222 44.6479 97.8554 46.7148L99.2696 48.129ZM104.589 40.3206C105.896 37.3152 106.547 34.1164 106.547 30.7344H104.547C104.547 33.8523 103.948 36.7786 102.755 39.5231L104.589 40.3206ZM106.547 30.7344C106.547 27.3786 105.878 24.1927 104.538 21.1867L102.712 22.0008C103.934 24.7448 104.547 27.6526 104.547 30.7344H106.547ZM104.542 21.195C103.243 18.2083 101.47 15.5872 99.2227 13.3398L97.8085 14.754C99.8736 16.819 101.507 19.2292 102.708 21.9925L104.542 21.195ZM99.2227 13.3398C96.9753 11.0923 94.3542 9.31902 91.3675 8.02043L90.57 9.85457C93.3333 11.056 95.7435 12.6889 97.8085 14.754L99.2227 13.3398ZM91.3758 8.0241C88.3698 6.68444 85.1839 6.01562 81.8281 6.01562V8.01562C84.9099 8.01562 87.8177 8.62806 90.5617 9.8509L91.3758 8.0241ZM81.8281 6.01562C75.0267 6.01562 69.2072 8.46858 64.4264 13.3469L65.8548 14.7468C70.2615 10.2502 75.5671 8.01562 81.8281 8.01562V6.01562ZM81.8281 6.09375C85.9717 6.09375 89.74 6.74852 93.1443 8.04399L93.8557 6.17476C90.1975 4.78273 86.1846 4.09375 81.8281 4.09375V6.09375ZM93.1543 8.04772C96.6092 9.32057 99.5587 11.0703 102.018 13.2893L103.357 11.8045C100.691 9.39845 97.5158 7.52318 93.8457 6.17103L93.1543 8.04772ZM102.023 13.2938C104.48 15.4816 106.38 18.0701 107.729 21.0666L109.553 20.2459C108.088 16.9924 106.02 14.1747 103.352 11.8L102.023 13.2938ZM107.732 21.0742C109.107 24.0622 109.797 27.2783 109.797 30.7344H111.797C111.797 27.003 111.05 23.5003 109.549 20.2383L107.732 21.0742ZM109.797 30.7344C109.797 34.1905 109.107 37.4065 107.732 40.3946L109.549 41.2304C111.05 37.9685 111.797 34.4658 111.797 30.7344H109.797ZM107.73 40.3987C106.382 43.3656 104.48 45.9574 102.018 48.1795L103.357 49.6643C106.02 47.2614 108.087 44.4469 109.551 41.2263L107.73 40.3987ZM102.018 48.179C99.5915 50.3659 96.6579 52.1006 93.2012 53.3742L93.8926 55.2508C97.5608 53.8994 100.721 52.0403 103.357 49.6647L102.018 48.179ZM93.2012 53.3742C89.7618 54.6413 85.9741 55.2812 81.8281 55.2812V57.2812C86.1821 57.2812 90.207 56.6087 93.8926 55.2508L93.2012 53.3742ZM81.8281 55.2812C75.0639 55.2812 69.319 52.888 64.5374 48.0764L63.1188 49.4861C68.2747 54.6745 74.5298 57.2812 81.8281 57.2812V55.2812ZM64.5374 48.0764C59.7543 43.2632 57.375 37.5007 57.375 30.7344H55.375C55.375 38.0305 57.9644 44.2993 63.1188 49.4861L64.5374 48.0764ZM57.375 30.7344C57.375 23.9679 59.7545 18.1886 64.5396 13.3433L63.1166 11.938C57.9642 17.1552 55.375 23.4384 55.375 30.7344H57.375ZM64.5396 13.3433C69.3217 8.50108 75.066 6.09375 81.8281 6.09375V4.09375C74.5278 4.09375 68.272 6.71767 63.1166 11.938L64.5396 13.3433ZM65.625 30.8281C65.625 26.2061 67.1847 22.3353 70.3074 19.1536L68.8801 17.7527C65.3778 21.321 63.625 25.7002 63.625 30.8281H65.625ZM70.3074 19.1537C73.4641 15.9379 77.2543 14.3438 81.7344 14.3438V12.3438C76.7145 12.3438 72.4109 14.1558 68.8801 17.7526L70.3074 19.1537ZM81.7344 14.3438C86.3476 14.3438 90.2153 15.9438 93.399 19.157L94.8197 17.7493C91.2535 14.15 86.8712 12.3438 81.7344 12.3438V14.3438ZM93.4055 19.1635C96.6187 22.3472 98.2188 26.2149 98.2188 30.8281H100.219C100.219 25.6913 98.4125 21.309 94.8132 17.7428L93.4055 19.1635ZM98.2188 30.8281C98.2188 35.2752 96.6257 39.0678 93.4055 42.2584L94.8132 43.6791C98.4056 40.1197 100.219 35.8185 100.219 30.8281H98.2188ZM93.4023 42.2616C90.2193 45.4447 86.3505 47.0312 81.7344 47.0312V49.0312C86.8682 49.0312 91.2495 47.2428 94.8165 43.6759L93.4023 42.2616ZM81.7344 47.0312C77.3175 47.0312 73.539 45.4529 70.3477 42.2616L68.9335 43.6759C72.4922 47.2346 76.7763 49.0312 81.7344 49.0312V47.0312ZM70.351 42.2649C67.1914 39.0758 65.625 35.2813 65.625 30.8281H63.625C63.625 35.8125 65.4024 40.1117 68.9302 43.6726L70.351 42.2649ZM68.9219 30.8281C68.9219 34.9794 70.3089 38.6093 73.07 41.6699L74.555 40.3301C72.1286 37.6407 70.9219 34.4893 70.9219 30.8281H68.9219ZM73.07 41.6699C75.8236 44.722 79.2327 46.4961 83.2601 46.9621L83.4899 44.9754C79.9548 44.5664 76.9889 43.028 74.555 40.3301L73.07 41.6699ZM83.4691 46.9643C87.6815 46.5663 91.2247 44.8135 94.0506 41.7215L92.5744 40.3722C90.0878 43.0928 87.006 44.6212 83.2809 44.9732L83.4691 46.9643ZM94.0506 41.7215C96.8739 38.6326 98.2969 34.9863 98.2969 30.8281H96.2969C96.2969 34.4825 95.0636 37.6487 92.5744 40.3722L94.0506 41.7215ZM98.2969 30.8281C98.2969 26.5538 96.8797 22.8426 94.0506 19.7472L92.5744 21.0965C95.0578 23.8137 96.2969 27.04 96.2969 30.8281H98.2969ZM94.0506 19.7472C91.2297 16.6608 87.6956 14.8627 83.4923 14.3663L83.2577 16.3525C86.9919 16.7935 90.0828 18.3704 92.5744 21.0965L94.0506 19.7472ZM83.2539 14.3667C79.1669 14.8652 75.74 16.6706 73.0156 19.7605L74.5157 21.0832C76.9163 18.3606 79.8956 16.7911 83.4961 16.352L83.2539 14.3667ZM73.0156 19.7605C70.285 22.8574 68.9219 26.5641 68.9219 30.8281H70.9219C70.9219 27.0296 72.1212 23.7989 74.5157 21.0832L73.0156 19.7605Z" fill="#BD2222" mask="url(#path-1-outside-1_95_3)"/>
</svg>
